<svg width="32" height="32" viewBox="0 0 32 32" fill="none" xmlns="http://www.w3.org/2000/svg">
<path d="M29.475 1.02656C28.1063 -0.342188 25.8937 -0.342188 24.525 1.02656L22.6437 2.90156L28.7625 9.02031L30.6437 7.13906C32.0125 5.77031 32.0125 3.55781 30.6437 2.18906L29.475 1.02656ZM10.775 14.7766C10.3937 15.1578 10.1 15.6266 9.93125 16.1453L8.08125 21.6953C7.9 22.2328 8.04375 22.8266 8.44375 23.2328C8.84375 23.6391 9.4375 23.7766 9.98125 23.5953L15.5312 21.7453C16.0438 21.5766 16.5125 21.2828 16.9 20.9016L27.3563 10.4391L21.2313 4.31406L10.775 14.7766ZM6 3.67031C2.6875 3.67031 0 6.35781 0 9.67031V25.6703C0 28.9828 2.6875 31.6703 6 31.6703H22C25.3125 31.6703 28 28.9828 28 25.6703V19.6703C28 18.5641 27.1063 17.6703 26 17.6703C24.8937 17.6703 24 18.5641 24 19.6703V25.6703C24 26.7766 23.1063 27.6703 22 27.6703H6C4.89375 27.6703 4 26.7766 4 25.6703V9.67031C4 8.56406 4.89375 7.67031 6 7.67031H12C13.1062 7.67031 14 6.77656 14 5.67031C14 4.56406 13.1062 3.67031 12 3.67031H6Z" fill="#FF9D00"/>
</svg>
