<svg width="20" height="16" viewBox="0 0 20 16" fill="none" xmlns="http://www.w3.org/2000/svg">
<path d="M10.0001 0.222229C7.19455 0.222229 4.94803 1.50001 3.31261 3.02084C1.68761 4.52778 0.600803 6.33334 0.0869141 7.57292C-0.0276693 7.84723 -0.0276693 8.15278 0.0869141 8.42709C0.600803 9.66667 1.68761 11.4722 3.31261 12.9792C4.94803 14.5 7.19455 15.7778 10.0001 15.7778C12.8057 15.7778 15.0522 14.5 16.6876 12.9792C18.3126 11.4688 19.3994 9.66667 19.9168 8.42709C20.0314 8.15278 20.0314 7.84723 19.9168 7.57292C19.3994 6.33334 18.3126 4.52778 16.6876 3.02084C15.0522 1.50001 12.8057 0.222229 10.0001 0.222229ZM5.00011 8.00001C5.00011 6.67392 5.52689 5.40215 6.46457 4.46447C7.40226 3.52679 8.67403 3.00001 10.0001 3.00001C11.3262 3.00001 12.598 3.52679 13.5356 4.46447C14.4733 5.40215 15.0001 6.67392 15.0001 8.00001C15.0001 9.32609 14.4733 10.5979 13.5356 11.5355C12.598 12.4732 11.3262 13 10.0001 13C8.67403 13 7.40226 12.4732 6.46457 11.5355C5.52689 10.5979 5.00011 9.32609 5.00011 8.00001ZM10.0001 5.77778C10.0001 7.00348 9.00358 8.00001 7.77789 8.00001C7.53136 8.00001 7.29525 7.95834 7.07303 7.88542C6.88205 7.82292 6.65983 7.94098 6.66678 8.14237C6.67719 8.38195 6.71191 8.62153 6.77789 8.86112C7.25358 10.6389 9.08344 11.6945 10.8612 11.2188C12.639 10.7431 13.6946 8.9132 13.2189 7.13542C12.8334 5.69445 11.5591 4.7257 10.1425 4.66667C9.94108 4.65973 9.82303 4.87848 9.88553 5.07292C9.95844 5.29515 10.0001 5.53126 10.0001 5.77778Z" fill="#FF9D00"/>
</svg>
