<svg width="32" height="32" viewBox="0 0 32 32" fill="none" xmlns="http://www.w3.org/2000/svg">
<path d="M8.88897 1.77777C7.90563 1.77777 7.11119 2.57222 7.11119 3.55555C7.11119 4.53888 7.90563 5.33333 8.88897 5.33333H11.7056L0.522298 16.5222C-0.172146 17.2167 -0.172146 18.3444 0.522298 19.0389C1.21674 19.7333 2.34452 19.7333 3.03896 19.0389L14.2223 7.84999V10.6667C14.2223 11.65 15.0167 12.4444 16.0001 12.4444C16.9834 12.4444 17.7779 11.65 17.7779 10.6667V3.55555C17.7779 2.57222 16.9834 1.77777 16.0001 1.77777H8.88897ZM32.0001 6.22222C32.0001 5.51497 31.7191 4.83669 31.219 4.3366C30.7189 3.8365 30.0407 3.55555 29.3334 3.55555C28.6262 3.55555 27.9479 3.8365 27.4478 4.3366C26.9477 4.83669 26.6667 5.51497 26.6667 6.22222C26.6667 6.92946 26.9477 7.60774 27.4478 8.10783C27.9479 8.60793 28.6262 8.88888 29.3334 8.88888C30.0407 8.88888 30.7189 8.60793 31.219 8.10783C31.7191 7.60774 32.0001 6.92946 32.0001 6.22222ZM24.889 13.3333C24.889 12.9831 24.82 12.6364 24.686 12.3128C24.552 11.9893 24.3555 11.6953 24.1079 11.4477C23.8603 11.2001 23.5663 11.0037 23.2428 10.8696C22.9193 10.7356 22.5725 10.6667 22.2223 10.6667C21.8721 10.6667 21.5253 10.7356 21.2018 10.8696C20.8783 11.0037 20.5843 11.2001 20.3367 11.4477C20.0891 11.6953 19.8926 11.9893 19.7586 12.3128C19.6246 12.6364 19.5556 12.9831 19.5556 13.3333C19.5556 13.6835 19.6246 14.0303 19.7586 14.3538C19.8926 14.6774 20.0891 14.9713 20.3367 15.2189C20.5843 15.4666 20.8783 15.663 21.2018 15.797C21.5253 15.931 21.8721 16 22.2223 16C22.5725 16 22.9193 15.931 23.2428 15.797C23.5663 15.663 23.8603 15.4666 24.1079 15.2189C24.3555 14.9713 24.552 14.6774 24.686 14.3538C24.82 14.0303 24.889 13.6835 24.889 13.3333ZM22.2223 23.1111C22.9295 23.1111 23.6078 22.8302 24.1079 22.3301C24.608 21.83 24.889 21.1517 24.889 20.4444C24.889 19.7372 24.608 19.0589 24.1079 18.5588C23.6078 18.0587 22.9295 17.7778 22.2223 17.7778C21.5151 17.7778 20.8368 18.0587 20.3367 18.5588C19.8366 19.0589 19.5556 19.7372 19.5556 20.4444C19.5556 21.1517 19.8366 21.83 20.3367 22.3301C20.8368 22.8302 21.5151 23.1111 22.2223 23.1111ZM24.889 27.5555C24.889 27.2054 24.82 26.8586 24.686 26.5351C24.552 26.2115 24.3555 25.9176 24.1079 25.6699C23.8603 25.4223 23.5663 25.2259 23.2428 25.0919C22.9193 24.9579 22.5725 24.8889 22.2223 24.8889C21.8721 24.8889 21.5253 24.9579 21.2018 25.0919C20.8783 25.2259 20.5843 25.4223 20.3367 25.6699C20.0891 25.9176 19.8926 26.2115 19.7586 26.5351C19.6246 26.8586 19.5556 27.2054 19.5556 27.5555C19.5556 27.9057 19.6246 28.2525 19.7586 28.576C19.8926 28.8996 20.0891 29.1935 20.3367 29.4412C20.5843 29.6888 20.8783 29.8852 21.2018 30.0192C21.5253 30.1532 21.8721 30.2222 22.2223 30.2222C22.5725 30.2222 22.9193 30.1532 23.2428 30.0192C23.5663 29.8852 23.8603 29.6888 24.1079 29.4412C24.3555 29.1935 24.552 28.8996 24.686 28.576C24.82 28.2525 24.889 27.9057 24.889 27.5555ZM32.0001 27.5555C32.0001 26.8483 31.7191 26.17 31.219 25.6699C30.7189 25.1698 30.0407 24.8889 29.3334 24.8889C28.6262 24.8889 27.9479 25.1698 27.4478 25.6699C26.9477 26.17 26.6667 26.8483 26.6667 27.5555C26.6667 28.2628 26.9477 28.9411 27.4478 29.4412C27.9479 29.9413 28.6262 30.2222 29.3334 30.2222C30.0407 30.2222 30.7189 29.9413 31.219 29.4412C31.7191 28.9411 32.0001 28.2628 32.0001 27.5555ZM15.1112 23.1111C15.8184 23.1111 16.4967 22.8302 16.9968 22.3301C17.4969 21.83 17.7779 21.1517 17.7779 20.4444C17.7779 19.7372 17.4969 19.0589 16.9968 18.5588C16.4967 18.0587 15.8184 17.7778 15.1112 17.7778C14.4039 17.7778 13.7257 18.0587 13.2256 18.5588C12.7255 19.0589 12.4445 19.7372 12.4445 20.4444C12.4445 21.1517 12.7255 21.83 13.2256 22.3301C13.7257 22.8302 14.4039 23.1111 15.1112 23.1111ZM17.7779 27.5555C17.7779 26.8483 17.4969 26.17 16.9968 25.6699C16.4967 25.1698 15.8184 24.8889 15.1112 24.8889C14.4039 24.8889 13.7257 25.1698 13.2256 25.6699C12.7255 26.17 12.4445 26.8483 12.4445 27.5555C12.4445 28.2628 12.7255 28.9411 13.2256 29.4412C13.7257 29.9413 14.4039 30.2222 15.1112 30.2222C15.8184 30.2222 16.4967 29.9413 16.9968 29.4412C17.4969 28.9411 17.7779 28.2628 17.7779 27.5555ZM8.00008 30.2222C8.70732 30.2222 9.3856 29.9413 9.88569 29.4412C10.3858 28.9411 10.6667 28.2628 10.6667 27.5555C10.6667 26.8483 10.3858 26.17 9.88569 25.6699C9.3856 25.1698 8.70732 24.8889 8.00008 24.8889C7.29283 24.8889 6.61455 25.1698 6.11446 25.6699C5.61436 26.17 5.33341 26.8483 5.33341 27.5555C5.33341 28.2628 5.61436 28.9411 6.11446 29.4412C6.61455 29.9413 7.29283 30.2222 8.00008 30.2222ZM32.0001 20.4444C32.0001 19.7372 31.7191 19.0589 31.219 18.5588C30.7189 18.0587 30.0407 17.7778 29.3334 17.7778C28.6262 17.7778 27.9479 18.0587 27.4478 18.5588C26.9477 19.0589 26.6667 19.7372 26.6667 20.4444C26.6667 21.1517 26.9477 21.83 27.4478 22.3301C27.9479 22.8302 28.6262 23.1111 29.3334 23.1111C30.0407 23.1111 30.7189 22.8302 31.219 22.3301C31.7191 21.83 32.0001 21.1517 32.0001 20.4444ZM29.3334 16C30.0407 16 30.7189 15.719 31.219 15.2189C31.7191 14.7188 32.0001 14.0406 32.0001 13.3333C32.0001 12.6261 31.7191 11.9478 31.219 11.4477C30.7189 10.9476 30.0407 10.6667 29.3334 10.6667C28.6262 10.6667 27.9479 10.9476 27.4478 11.4477C26.9477 11.9478 26.6667 12.6261 26.6667 13.3333C26.6667 14.0406 26.9477 14.7188 27.4478 15.2189C27.9479 15.719 28.6262 16 29.3334 16Z" fill="#03404A"/>
</svg>
