<svg width="32" height="32" viewBox="0 0 32 32" fill="none" xmlns="http://www.w3.org/2000/svg">
    <path d="M10 0C11.1062 0 12 0.89375 12 2V4H20V2C20 0.89375 20.8937 0 22 0C23.1063 0 24 0.89375 24 2V4H27C28.6562 4 30 5.34375 30 7V10H2V7C2 5.34375 3.34375 4 5 4H8V2C8 0.89375 8.89375 0 10 0ZM2 12H30V29C30 30.6562 28.6562 32 27 32H5C3.34375 32 2 30.6562 2 29V12ZM7 16C6.45 16 6 16.45 6 17V23C6 23.55 6.45 24 7 24H13C13.55 24 14 23.55 14 23V17C14 16.45 13.55 16 13 16H7Z" fill="white" fill-opacity="0.95"/>
</svg>
