<svg width="80" height="81" viewBox="0 0 80 81" fill="none" xmlns="http://www.w3.org/2000/svg">
    <rect x="4" y="4" width="72" height="73" rx="24" fill="#FF9D00"/>
    <rect x="4" y="4" width="72" height="73" rx="24" stroke="#03404A" stroke-width="8"/>
    <g clip-path="url(#clip0_57_55)">
        <path d="M39.9996 27.5557C35.5107 27.5557 31.9163 29.6001 29.2996 32.0334C26.6996 34.4446 24.9607 37.3334 24.1385 39.3168C23.9551 39.7557 23.9551 40.2446 24.1385 40.6834C24.9607 42.6668 26.6996 45.5557 29.2996 47.9668C31.9163 50.4001 35.5107 52.4446 39.9996 52.4446C44.4885 52.4446 48.0829 50.4001 50.6996 47.9668C53.2996 45.5501 55.0385 42.6668 55.8663 40.6834C56.0496 40.2446 56.0496 39.7557 55.8663 39.3168C55.0385 37.3334 53.2996 34.4446 50.6996 32.0334C48.0829 29.6001 44.4885 27.5557 39.9996 27.5557ZM31.9996 40.0001C31.9996 37.8784 32.8424 35.8435 34.3427 34.3433C35.843 32.843 37.8779 32.0001 39.9996 32.0001C42.1213 32.0001 44.1562 32.843 45.6564 34.3433C47.1567 35.8435 47.9996 37.8784 47.9996 40.0001C47.9996 42.1218 47.1567 44.1567 45.6564 45.657C44.1562 47.1573 42.1213 48.0001 39.9996 48.0001C37.8779 48.0001 35.843 47.1573 34.3427 45.657C32.8424 44.1567 31.9996 42.1218 31.9996 40.0001ZM39.9996 36.4446C39.9996 38.4057 38.4051 40.0001 36.444 40.0001C36.0496 40.0001 35.6718 39.9334 35.3163 39.8168C35.0107 39.7168 34.6551 39.9057 34.6663 40.2279C34.6829 40.6112 34.7385 40.9946 34.844 41.3779C35.6051 44.2223 38.5329 45.9112 41.3774 45.1501C44.2218 44.389 45.9107 41.4612 45.1496 38.6168C44.5329 36.3112 42.494 34.7612 40.2274 34.6668C39.9051 34.6557 39.7163 35.0057 39.8163 35.3168C39.9329 35.6723 39.9996 36.0501 39.9996 36.4446Z" fill="#03404A"/>
    </g>
    <defs>
        <clipPath id="clip0_57_55">
            <rect width="32" height="32" fill="white" transform="translate(24 24)"/>
        </clipPath>
    </defs>
</svg>
