<svg width="32" height="29" viewBox="0 0 32 29" fill="none" xmlns="http://www.w3.org/2000/svg">
<path d="M31.9889 14.1944C31.9889 15.1944 31.1556 15.9778 30.2111 15.9778H28.4333L28.4722 24.8778C28.4833 26.85 26.8889 28.45 24.9167 28.45H7.11667C5.15556 28.45 3.56111 26.8556 3.56111 24.8944V15.9778H1.77778C0.777778 15.9778 0 15.2 0 14.1944C0 13.6944 0.166667 13.25 0.555556 12.8611L14.8 0.444444C15.1889 0.0555556 15.6333 0 16.0222 0C16.4111 0 16.8556 0.111111 17.1889 0.388889L31.3778 12.8611C31.8222 13.25 32.0444 13.6944 31.9889 14.1944ZM19.5556 12.4444C19.5556 11.5015 19.181 10.5971 18.5142 9.93029C17.8474 9.26349 16.943 8.88889 16 8.88889C15.057 8.88889 14.1526 9.26349 13.4858 9.93029C12.819 10.5971 12.4444 11.5015 12.4444 12.4444C12.4444 13.3874 12.819 14.2918 13.4858 14.9586C14.1526 15.6254 15.057 16 16 16C16.943 16 17.8474 15.6254 18.5142 14.9586C19.181 14.2918 19.5556 13.3874 19.5556 12.4444ZM14.2222 17.7778C11.7667 17.7778 9.77778 19.7667 9.77778 22.2222C9.77778 22.7111 10.1778 23.1111 10.6667 23.1111H21.3333C21.8222 23.1111 22.2222 22.7111 22.2222 22.2222C22.2222 19.7667 20.2333 17.7778 17.7778 17.7778H14.2222Z" fill="#03404A"/>
</svg>
