<svg width="64" height="65" viewBox="0 0 64 65" fill="none" xmlns="http://www.w3.org/2000/svg">
    <path d="M47.9889 32.1944C47.9889 33.1944 47.1556 33.9778 46.2111 33.9778H44.4333L44.4722 42.8778C44.4833 44.85 42.8889 46.45 40.9167 46.45H23.1167C21.1556 46.45 19.5611 44.8556 19.5611 42.8944V33.9778H17.7778C16.7778 33.9778 16 33.2 16 32.1944C16 31.6944 16.1667 31.25 16.5556 30.8611L30.8 18.4444C31.1889 18.0556 31.6333 18 32.0222 18C32.4111 18 32.8556 18.1111 33.1889 18.3889L47.3778 30.8611C47.8222 31.25 48.0444 31.6944 47.9889 32.1944ZM35.5556 30.4444C35.5556 29.5015 35.181 28.5971 34.5142 27.9303C33.8474 27.2635 32.943 26.8889 32 26.8889C31.057 26.8889 30.1526 27.2635 29.4858 27.9303C28.819 28.5971 28.4444 29.5015 28.4444 30.4444C28.4444 31.3874 28.819 32.2918 29.4858 32.9586C30.1526 33.6254 31.057 34 32 34C32.943 34 33.8474 33.6254 34.5142 32.9586C35.181 32.2918 35.5556 31.3874 35.5556 30.4444ZM30.2222 35.7778C27.7667 35.7778 25.7778 37.7667 25.7778 40.2222C25.7778 40.7111 26.1778 41.1111 26.6667 41.1111H37.3333C37.8222 41.1111 38.2222 40.7111 38.2222 40.2222C38.2222 37.7667 36.2333 35.7778 33.7778 35.7778H30.2222Z" fill="#03404A"/>
</svg>
