<svg width="32" height="32" viewBox="0 0 32 32" fill="none" xmlns="http://www.w3.org/2000/svg">
<g clip-path="url(#clip0_57_2914)">
<path d="M4.8 9.6C4.8 7.90261 5.47428 6.27475 6.67452 5.07451C7.87475 3.87428 9.50261 3.2 11.2 3.2C12.8974 3.2 14.5253 3.87428 15.7255 5.07451C16.9257 6.27475 17.6 7.90261 17.6 9.6C17.6 11.2974 16.9257 12.9252 15.7255 14.1255C14.5253 15.3257 12.8974 16 11.2 16C9.50261 16 7.87475 15.3257 6.67452 14.1255C5.47428 12.9252 4.8 11.2974 4.8 9.6ZM0 27.315C0 22.39 3.99 18.4 8.915 18.4H13.485C18.41 18.4 22.4 22.39 22.4 27.315C22.4 28.135 21.735 28.8 20.915 28.8H1.485C0.665 28.8 0 28.135 0 27.315ZM30.465 28.8H23.57C23.84 28.33 24 27.785 24 27.2V26.8C24 23.765 22.645 21.04 20.51 19.21C20.63 19.205 20.745 19.2 20.865 19.2H23.935C28.39 19.2 32 22.81 32 27.265C32 28.115 31.31 28.8 30.465 28.8ZM21.6 16C20.05 16 18.65 15.37 17.635 14.355C18.62 13.025 19.2 11.38 19.2 9.6C19.2 8.26 18.87 6.995 18.285 5.885C19.215 5.205 20.36 4.8 21.6 4.8C24.695 4.8 27.2 7.305 27.2 10.4C27.2 13.495 24.695 16 21.6 16Z" fill="#FF9D00"/>
</g>
<defs>
<clipPath id="clip0_57_2914">
<rect width="32" height="32" fill="white"/>
</clipPath>
</defs>
</svg>
