<svg width="60" height="47" viewBox="0 0 60 47" fill="none" xmlns="http://www.w3.org/2000/svg">
    <path d="M16.6667 0C12.9896 0 10 2.98958 10 6.66667V30C10 33.6771 12.9896 36.6667 16.6667 36.6667H53.3333C57.0104 36.6667 60 33.6771 60 30V6.66667C60 2.98958 57.0104 0 53.3333 0H16.6667ZM41.25 11.1146L51.25 26.1146C51.7604 26.8854 51.8125 27.8646 51.375 28.6771C50.9375 29.4896 50.0937 30 49.1667 30H34.1667H29.1667H20.8333C19.875 30 19 29.4479 18.5833 28.5833C18.1667 27.7188 18.2812 26.6875 18.8854 25.9375L25.5521 17.6042C26.0312 17.0104 26.7396 16.6667 27.5 16.6667C28.2604 16.6667 28.9792 17.0104 29.4479 17.6042L31.25 19.8542L37.0833 11.1042C37.5521 10.4167 38.3333 10 39.1667 10C40 10 40.7812 10.4167 41.25 11.1146ZM20 10C20 9.11594 20.3512 8.2681 20.9763 7.64298C21.6014 7.01786 22.4493 6.66667 23.3333 6.66667C24.2174 6.66667 25.0652 7.01786 25.6904 7.64298C26.3155 8.2681 26.6667 9.11594 26.6667 10C26.6667 10.8841 26.3155 11.7319 25.6904 12.357C25.0652 12.9821 24.2174 13.3333 23.3333 13.3333C22.4493 13.3333 21.6014 12.9821 20.9763 12.357C20.3512 11.7319 20 10.8841 20 10ZM5 9.16667C5 7.78125 3.88542 6.66667 2.5 6.66667C1.11458 6.66667 0 7.78125 0 9.16667V32.5C0 40.3229 6.34375 46.6667 14.1667 46.6667H47.5C48.8854 46.6667 50 45.5521 50 44.1667C50 42.7812 48.8854 41.6667 47.5 41.6667H14.1667C9.10417 41.6667 5 37.5625 5 32.5V9.16667Z" fill="white"/>
</svg>
