<svg width="60" height="60" viewBox="0 0 60 60" fill="none" xmlns="http://www.w3.org/2000/svg">
    <rect width="60" height="60" rx="15" fill="#F7F7F7" fill-opacity="0.17"/>
    <path d="M44 18C44 19.1063 43.1063 20 42 20H28C26.8938 20 26 19.1063 26 18C26 16.8937 26.8938 16 28 16H42C43.1063 16 44 16.8937 44 18ZM44 34C44 35.1063 43.1063 36 42 36H28C26.8938 36 26 35.1063 26 34C26 32.8937 26.8938 32 28 32H42C43.1063 32 44 32.8937 44 34ZM16 26C16 24.8938 16.8937 24 18 24H42C43.1063 24 44 24.8938 44 26C44 27.1062 43.1063 28 42 28H18C16.8937 28 16 27.1062 16 26ZM44 42C44 43.1063 43.1063 44 42 44H18C16.8937 44 16 43.1063 16 42C16 40.8937 16.8937 40 18 40H42C43.1063 40 44 40.8937 44 42Z" fill="#FF9D00"/>
</svg>
