<svg width="20" height="16" viewBox="0 0 20 16" fill="none" xmlns="http://www.w3.org/2000/svg">
<path d="M5.55556 0C4.32986 0 3.33333 0.996528 3.33333 2.22222V10C3.33333 11.2257 4.32986 12.2222 5.55556 12.2222H17.7778C19.0035 12.2222 20 11.2257 20 10V2.22222C20 0.996528 19.0035 0 17.7778 0H5.55556ZM13.75 3.70486L17.0833 8.70486C17.2535 8.96181 17.2708 9.28819 17.125 9.55903C16.9792 9.82986 16.6979 10 16.3889 10H11.3889H9.72222H6.94444C6.625 10 6.33333 9.81597 6.19444 9.52778C6.05556 9.23958 6.09375 8.89583 6.29514 8.64583L8.51736 5.86806C8.67708 5.67014 8.91319 5.55556 9.16667 5.55556C9.42014 5.55556 9.65972 5.67014 9.81597 5.86806L10.4167 6.61806L12.3611 3.70139C12.5174 3.47222 12.7778 3.33333 13.0556 3.33333C13.3333 3.33333 13.5938 3.47222 13.75 3.70486ZM6.66667 3.33333C6.66667 3.03865 6.78373 2.75603 6.9921 2.54766C7.20048 2.33929 7.48309 2.22222 7.77778 2.22222C8.07246 2.22222 8.35508 2.33929 8.56345 2.54766C8.77183 2.75603 8.88889 3.03865 8.88889 3.33333C8.88889 3.62802 8.77183 3.91063 8.56345 4.11901C8.35508 4.32738 8.07246 4.44444 7.77778 4.44444C7.48309 4.44444 7.20048 4.32738 6.9921 4.11901C6.78373 3.91063 6.66667 3.62802 6.66667 3.33333ZM1.66667 3.05556C1.66667 2.59375 1.29514 2.22222 0.833333 2.22222C0.371528 2.22222 0 2.59375 0 3.05556V10.8333C0 13.441 2.11458 15.5556 4.72222 15.5556H15.8333C16.2951 15.5556 16.6667 15.184 16.6667 14.7222C16.6667 14.2604 16.2951 13.8889 15.8333 13.8889H4.72222C3.03472 13.8889 1.66667 12.5208 1.66667 10.8333V3.05556Z" fill="#02FCC0"/>
</svg>
