<svg width="32" height="26" viewBox="0 0 32 26" fill="none" xmlns="http://www.w3.org/2000/svg">
    <path d="M4.8 6.59995C4.8 4.90257 5.47428 3.2747 6.67452 2.07447C7.87475 0.874235 9.50261 0.199951 11.2 0.199951C12.8974 0.199951 14.5253 0.874235 15.7255 2.07447C16.9257 3.2747 17.6 4.90257 17.6 6.59995C17.6 8.29734 16.9257 9.9252 15.7255 11.1254C14.5253 12.3257 12.8974 13 11.2 13C9.50261 13 7.87475 12.3257 6.67452 11.1254C5.47428 9.9252 4.8 8.29734 4.8 6.59995ZM0 24.315C0 19.39 3.99 15.4 8.915 15.4H13.485C18.41 15.4 22.4 19.39 22.4 24.315C22.4 25.135 21.735 25.8 20.915 25.8H1.485C0.665 25.8 0 25.135 0 24.315ZM30.465 25.8H23.57C23.84 25.33 24 24.785 24 24.2V23.8C24 20.765 22.645 18.04 20.51 16.21C20.63 16.205 20.745 16.2 20.865 16.2H23.935C28.39 16.2 32 19.81 32 24.265C32 25.115 31.31 25.8 30.465 25.8ZM21.6 13C20.05 13 18.65 12.37 17.635 11.355C18.62 10.025 19.2 8.37995 19.2 6.59995C19.2 5.25995 18.87 3.99495 18.285 2.88495C19.215 2.20495 20.36 1.79995 21.6 1.79995C24.695 1.79995 27.2 4.30495 27.2 7.39995C27.2 10.495 24.695 13 21.6 13Z" fill="#03404A"/>
</svg>
