<svg width="16" height="20" viewBox="0 0 16 20" fill="none" xmlns="http://www.w3.org/2000/svg">
<path d="M3 0C1.62109 0 0.5 1.12109 0.5 2.5V17.5C0.5 18.8789 1.62109 20 3 20H13C14.3789 20 15.5 18.8789 15.5 17.5V6.25H10.5C9.80859 6.25 9.25 5.69141 9.25 5V0H3ZM10.5 0V5H15.5L10.5 0ZM3 11.25C3 10.5586 3.55859 10 4.25 10H8C8.69141 10 9.25 10.5586 9.25 11.25V15C9.25 15.6914 8.69141 16.25 8 16.25H4.25C3.55859 16.25 3 15.6914 3 15V11.25ZM12.2539 15.543L10.5 14.375V11.875L12.2539 10.707C12.332 10.6562 12.4258 10.625 12.5195 10.625C12.7852 10.625 13 10.8398 13 11.1055V15.1445C13 15.4102 12.7852 15.625 12.5195 15.625C12.4258 15.625 12.332 15.5977 12.2539 15.543Z" fill="#FFDBA4"/>
</svg>
