<svg width="60" height="60" viewBox="0 0 60 60" fill="none" xmlns="http://www.w3.org/2000/svg">
    <path d="M15 0C10.8633 0 7.5 3.36328 7.5 7.5V52.5C7.5 56.6367 10.8633 60 15 60H45C49.1367 60 52.5 56.6367 52.5 52.5V18.75H37.5C35.4258 18.75 33.75 17.0742 33.75 15V0H15ZM37.5 0V15H52.5L37.5 0ZM15 33.75C15 31.6758 16.6758 30 18.75 30H30C32.0742 30 33.75 31.6758 33.75 33.75V45C33.75 47.0742 32.0742 48.75 30 48.75H18.75C16.6758 48.75 15 47.0742 15 45V33.75ZM42.7617 46.6289L37.5 43.125V35.625L42.7617 32.1211C42.9961 31.9688 43.2773 31.875 43.5586 31.875C44.3555 31.875 45 32.5195 45 33.3164V45.4336C45 46.2305 44.3555 46.875 43.5586 46.875C43.2773 46.875 42.9961 46.793 42.7617 46.6289Z" fill="white"/>
</svg>
