<svg width="32" height="26" viewBox="0 0 32 26" fill="none" xmlns="http://www.w3.org/2000/svg">
    <path d="M15.9996 0.555664C11.5107 0.555664 7.91625 2.60011 5.29959 5.03344C2.69959 7.44455 0.960699 10.3334 0.138477 12.3168C-0.0448568 12.7557 -0.0448568 13.2446 0.138477 13.6834C0.960699 15.6668 2.69959 18.5557 5.29959 20.9668C7.91625 23.4001 11.5107 25.4446 15.9996 25.4446C20.4885 25.4446 24.0829 23.4001 26.6996 20.9668C29.2996 18.5501 31.0385 15.6668 31.8663 13.6834C32.0496 13.2446 32.0496 12.7557 31.8663 12.3168C31.0385 10.3334 29.2996 7.44455 26.6996 5.03344C24.0829 2.60011 20.4885 0.555664 15.9996 0.555664ZM7.99959 13.0001C7.99959 10.8784 8.84244 8.84354 10.3427 7.34325C11.843 5.84296 13.8779 5.00011 15.9996 5.00011C18.1213 5.00011 20.1562 5.84296 21.6564 7.34325C23.1567 8.84354 23.9996 10.8784 23.9996 13.0001C23.9996 15.1218 23.1567 17.1567 21.6564 18.657C20.1562 20.1573 18.1213 21.0001 15.9996 21.0001C13.8779 21.0001 11.843 20.1573 10.3427 18.657C8.84244 17.1567 7.99959 15.1218 7.99959 13.0001ZM15.9996 9.44455C15.9996 11.4057 14.4051 13.0001 12.444 13.0001C12.0496 13.0001 11.6718 12.9334 11.3163 12.8168C11.0107 12.7168 10.6551 12.9057 10.6663 13.2279C10.6829 13.6112 10.7385 13.9946 10.844 14.3779C11.6051 17.2223 14.5329 18.9112 17.3774 18.1501C20.2218 17.389 21.9107 14.4612 21.1496 11.6168C20.5329 9.31122 18.494 7.76122 16.2274 7.66678C15.9051 7.65566 15.7163 8.00566 15.8163 8.31677C15.9329 8.67233 15.9996 9.05011 15.9996 9.44455Z" fill="#FF9D00"/>
</svg>
